<svg width="210" height="179" viewBox="0 0 210 179" fill="none" xmlns="http://www.w3.org/2000/svg">
<path opacity="0.4" d="M198.409 107.618C195.408 103.929 191.985 100.563 188.329 97.5273C182.737 92.8826 175.916 87.6876 176.174 80.4131C176.444 72.7785 184.349 68.0026 188.234 61.4301C191.468 55.9609 191.82 49.1353 190.366 42.9476C188.911 36.76 185.799 31.0965 182.423 25.7141C175.991 15.4571 167.013 5.05389 154.962 4.08911C139.427 2.84555 126.441 17.8241 110.856 17.8789C97.9334 17.9242 87.4501 7.87236 75.4523 3.06218C62.1202 -2.28271 45.9679 -0.652512 34.5885 8.12463C19.9087 19.4474 15.2996 40.3974 18.9739 58.5925C19.9612 63.4813 21.4675 68.3294 21.4451 73.3173C21.3982 83.8019 10.6526 88.8575 6.60213 97.4638C2.61821 105.928 0.844687 116.065 1.0084 125.395C1.25375 139.436 6.75672 153.324 16.1907 163.708C20.9065 168.899 26.7556 173.321 33.5487 175.034C42.3798 177.259 51.6013 174.72 60.5902 173.26C80.5325 170.021 100.936 172.157 120.924 175.097C137.343 177.513 154.064 180.469 170.418 177.64C186.772 174.811 203.036 164.833 208.239 149.04C211.302 139.745 210.191 129.363 206.289 120.39C204.283 115.779 201.582 111.518 198.409 107.618Z" fill="url(#paint0_linear_2274_6738)"/>
<path d="M48.0264 107.462C48.0264 108.322 49.0752 109.018 50.3684 109.018C50.3684 109.018 123.95 109.018 128.248 109.018C136.278 109.018 138.737 121.787 138.737 121.787L140.626 114.105C140.626 114.105 136.072 105.903 130.955 105.903C125.838 105.903 50.3684 105.903 50.3684 105.903C49.0752 105.903 48.0264 106.601 48.0264 107.462Z" fill="#A7A5A6"/>
<path d="M57.0464 139.179H132.995C136.411 139.179 139.124 137.734 141.513 128.048C142.21 125.218 159.213 54.4638 162.686 40.3274L184.229 38.4837C186.278 38.276 187.464 39.211 187.256 37.1572C187.05 35.1034 185.217 33.6111 183.168 33.8147L162.387 35.9247C160.818 36.0839 159.519 37.2153 159.141 38.7513C159.141 38.7513 138.426 123.097 137.649 126.253C136.304 131.705 133.901 134.165 132.995 134.165H57.0464C52.6073 134.165 53.3486 139.179 57.0464 139.179Z" fill="#B6B5B5"/>
<path d="M110.423 41.431L110.323 40.8238C110.41 40.7939 110.499 40.7651 110.588 40.7376L110.466 41.4161C110.451 41.4215 110.437 41.4263 110.423 41.431Z" fill="#A0D0ED"/>
<path d="M65.3969 150.694C63.172 150.694 61.3628 148.88 61.3628 146.65C61.3628 144.421 63.172 142.606 65.3969 142.606C66.1645 142.606 66.9135 142.826 67.5645 143.242L67.73 143.348L67.8841 143.447L65.9208 145.385L65.7517 145.339C65.7416 145.336 65.7314 145.334 65.7219 145.332C65.5994 145.301 65.4949 145.285 65.3969 145.285C64.6467 145.285 64.0351 145.898 64.0351 146.65C64.0351 147.402 64.6467 148.014 65.3969 148.014C66.1472 148.014 66.7582 147.402 66.7582 146.65C66.7582 146.544 66.7415 146.432 66.7056 146.303C66.7026 146.292 66.6997 146.281 66.6967 146.27L66.6465 146.095L68.6003 144.167L68.7036 144.33L68.8021 144.485C69.2137 145.135 69.4323 145.884 69.4323 146.65C69.4323 148.88 67.6225 150.694 65.3969 150.694ZM65.3969 143.213C63.5059 143.213 61.9685 144.755 61.9685 146.65C61.9685 148.545 63.5059 150.086 65.3969 150.086C67.288 150.086 68.8266 148.545 68.8266 146.65C68.8266 146.126 68.7054 145.612 68.4754 145.143L67.3238 146.279C67.3507 146.409 67.3651 146.529 67.3651 146.65C67.3651 147.737 66.4828 148.621 65.3969 148.621C64.3117 148.621 63.4289 147.737 63.4289 146.65C63.4289 145.563 64.3117 144.679 65.3969 144.679C65.5063 144.679 65.6186 144.689 65.7374 144.713L66.9015 143.564C66.4339 143.334 65.9208 143.213 65.3969 143.213Z" fill="#A0D0ED"/>
<path d="M82.8032 47.4276C82.7267 48.1166 83.2219 48.7361 83.9118 48.8128C84.5963 48.8876 85.2157 48.3908 85.2921 47.7042C85.3662 47.0152 84.8711 46.3956 84.1848 46.319C83.4967 46.2436 82.8785 46.7386 82.8032 47.4276Z" fill="#2D69A0"/>
<path d="M53.9888 152.055C53.9888 157.436 58.3431 161.796 63.7104 161.796C69.0789 161.796 73.4308 157.436 73.4308 152.055C73.4308 146.673 69.0789 142.312 63.7104 142.312C58.3431 142.312 53.9888 146.673 53.9888 152.055Z" fill="#29242C"/>
<path d="M57.7554 152.053C57.7554 155.345 60.4175 158.012 63.7027 158.012C66.9872 158.012 69.6512 155.345 69.6512 152.053C69.6512 148.761 66.9872 146.093 63.7027 146.093C60.4175 146.093 57.7554 148.761 57.7554 152.053Z" fill="#B9B7B8"/>
<path d="M59.4215 150.114C57.5185 156.023 65.6388 158.862 68.0459 152.862C69.4752 149.296 74.5003 135.443 74.5003 135.443H55.6274C55.6274 135.443 61.9056 142.4 59.4215 150.114Z" fill="#D3D2D2"/>
<path d="M61.1436 151.321C61.1436 152.565 62.1506 153.576 63.3948 153.576C64.6377 153.576 65.6448 152.565 65.6448 151.321C65.6448 150.076 64.6377 149.065 63.3948 149.065C62.1506 149.065 61.1436 150.076 61.1436 151.321Z" fill="#9C9A9B"/>
<path d="M113.83 152.055C113.83 157.436 118.183 161.796 123.552 161.796C128.92 161.796 133.272 157.436 133.272 152.055C133.272 146.673 128.92 142.312 123.552 142.312C118.183 142.312 113.83 146.673 113.83 152.055Z" fill="#29242C"/>
<path d="M117.604 152.053C117.604 155.345 120.269 158.012 123.553 158.012C126.838 158.012 129.501 155.345 129.501 152.053C129.501 148.761 126.838 146.093 123.553 146.093C120.269 146.093 117.604 148.761 117.604 152.053Z" fill="#B9B7B8"/>
<path d="M36.3997 49.057H157.163C153.391 63.8177 146.014 92.6874 145.175 95.9695C144.041 100.405 141.629 103.63 137.256 103.63H54.7517C50.3777 103.63 48.4078 101.041 46.8316 95.9695C45.0098 90.1123 39.3259 63.1401 36.3997 49.057ZM33.605 46.826C36.6602 62.0704 42.5997 91.2687 44.5021 97.6103C46.1494 103.098 48.2071 105.901 52.7759 105.901H138.957C143.526 105.901 146.048 102.41 147.232 97.6103C148.109 94.0558 155.814 62.8055 159.754 46.826H33.605Z" fill="#B6B5B5"/>
<path d="M31.9307 47.5C31.9307 48.3602 33.3206 49.057 35.0384 49.057H156.648C158.364 49.057 159.756 48.3602 159.756 47.5C159.756 46.6392 158.364 45.9425 156.648 45.9425H35.0384C33.3206 45.9425 31.9307 46.6392 31.9307 47.5Z" fill="#A7A5A6"/>
<path d="M37.1655 61.8062C37.1655 62.6651 36.5018 63.3637 38.1479 63.3637H154.631C156.273 63.3637 157.606 62.6651 157.606 61.8062C157.606 60.946 156.273 60.248 154.631 60.248H38.1479C36.5018 60.248 37.1655 60.946 37.1655 61.8062Z" fill="#A7A5A6"/>
<path d="M125.944 105.731C126.777 105.927 127.607 105.442 127.793 104.646L140.951 48.3118C141.136 47.5162 140.608 46.7129 139.775 46.516C138.938 46.3214 138.11 46.8063 137.924 47.6024L124.766 103.937C124.581 104.732 125.107 105.535 125.944 105.731Z" fill="#A7A5A6"/>
<path d="M102.992 105.053C103.829 105.25 104.655 104.765 104.844 103.969L118 47.6324C118.187 46.8399 117.66 46.0341 116.824 45.8396C115.989 45.6433 115.16 46.1293 114.975 46.9243L101.816 103.258C101.629 104.054 102.158 104.858 102.992 105.053Z" fill="#A7A5A6"/>
<path d="M80.0422 105.68C80.8778 105.877 81.7057 105.392 81.8908 104.596L95.0487 48.2594C95.2351 47.4668 94.7088 46.6611 93.875 46.4665C93.0376 46.2702 92.2092 46.7563 92.024 47.5512L78.8655 103.885C78.681 104.681 79.2066 105.485 80.0422 105.68Z" fill="#A7A5A6"/>
<path d="M57.0606 105.68C57.8981 105.877 58.7247 105.392 58.9111 104.596L72.069 48.2594C72.2541 47.4668 71.7291 46.6611 70.8917 46.4665C70.0561 46.2702 69.2282 46.7563 69.043 47.5512L55.8852 103.885C55.6988 104.681 56.225 105.485 57.0606 105.68Z" fill="#A7A5A6"/>
<path d="M38.1954 65.3497C39.0304 65.5454 39.8594 65.0605 40.0446 64.265L44.2149 48.2589C44.4025 47.4664 43.8751 46.6607 43.0395 46.4661C42.2026 46.2698 41.3742 46.7558 41.189 47.5508L37.0175 63.5557C36.8323 64.3506 37.3597 65.1539 38.1954 65.3497Z" fill="#A7A5A6"/>
<path d="M40.7193 78.2961C40.7193 79.1245 40.0011 79.7961 41.544 79.7961H149.876C151.419 79.7961 152.668 79.1245 152.668 78.2961C152.668 77.4671 151.419 76.7961 149.876 76.7961H40.5598C39.0168 76.7961 40.7193 77.4671 40.7193 78.2961Z" fill="#A7A5A6"/>
<path d="M44.0988 91.3212C44.0988 92.1814 42.3169 92.8781 43.7798 92.8781H147.324C148.787 92.8781 149.971 92.1814 149.971 91.3212C149.971 90.4604 148.787 89.7636 147.324 89.7636H43.7798C42.3169 89.7636 44.0988 90.4604 44.0988 91.3212Z" fill="#A7A5A6"/>
<path d="M119.262 150.114C117.361 156.023 125.479 158.862 127.886 152.862C129.316 149.296 134.341 135.443 134.341 135.443H115.465C115.465 135.443 121.746 142.4 119.262 150.114Z" fill="#D3D2D2"/>
<path d="M168.372 35.3173L183.164 33.8155C185.213 33.6119 187.046 35.1042 187.252 37.158C187.46 39.2118 185.968 39.0154 183.919 39.2226L168.621 40.4036C167.815 39.2226 167.815 36.4038 168.372 35.3173Z" fill="#186749"/>
<path d="M120.976 151.321C120.976 152.565 121.984 153.576 123.229 153.576C124.472 153.576 125.479 152.565 125.479 151.321C125.479 150.076 124.472 149.065 123.229 149.065C121.984 149.065 120.976 150.076 120.976 151.321Z" fill="#9C9A9B"/>
<path d="M57.046 139.179H132.995C136.411 139.179 139.123 137.735 141.513 128.048C142.21 125.219 159.212 54.464 162.686 40.3276L184.228 38.4839C186.277 38.2762 187.464 39.2112 187.255 37.1574C187.049 35.1036 185.217 33.6113 183.168 33.8149L162.387 35.9249C160.818 36.0841 159.518 37.2155 159.141 38.7515C159.141 38.7515 138.425 123.097 137.648 126.254C136.303 131.705 133.901 134.165 132.995 134.165H57.046C52.6068 134.165 53.3481 139.179 57.046 139.179Z" fill="#A7A5A6"/>
<path d="M110.423 41.4309L110.323 40.8236C110.41 40.7937 110.499 40.765 110.588 40.7374L110.466 41.4159C110.451 41.4213 110.437 41.4261 110.423 41.4309Z" fill="#A0D0ED"/>
<path d="M65.3969 150.694C63.172 150.694 61.3628 148.879 61.3628 146.65C61.3628 144.42 63.172 142.605 65.3969 142.605C66.1645 142.605 66.9135 142.826 67.5645 143.242L67.73 143.348L67.8841 143.447L65.9208 145.385L65.7517 145.339C65.7416 145.336 65.7314 145.334 65.7219 145.331C65.5994 145.3 65.4949 145.285 65.3969 145.285C64.6467 145.285 64.0351 145.898 64.0351 146.65C64.0351 147.402 64.6467 148.014 65.3969 148.014C66.1472 148.014 66.7582 147.402 66.7582 146.65C66.7582 146.544 66.7415 146.432 66.7056 146.302C66.7026 146.292 66.6997 146.281 66.6967 146.27L66.6465 146.095L68.6003 144.167L68.7036 144.329L68.8021 144.484C69.2137 145.134 69.4323 145.884 69.4323 146.65C69.4323 148.879 67.6225 150.694 65.3969 150.694ZM65.3969 143.212C63.5059 143.212 61.9685 144.755 61.9685 146.65C61.9685 148.545 63.5059 150.086 65.3969 150.086C67.288 150.086 68.8266 148.545 68.8266 146.65C68.8266 146.126 68.7054 145.612 68.4754 145.143L67.3238 146.278C67.3507 146.408 67.365 146.529 67.365 146.65C67.365 147.737 66.4828 148.621 65.3969 148.621C64.3117 148.621 63.4289 147.737 63.4289 146.65C63.4289 145.563 64.3117 144.678 65.3969 144.678C65.5063 144.678 65.6185 144.688 65.7374 144.713L66.9015 143.564C66.4339 143.334 65.9208 143.212 65.3969 143.212Z" fill="#A0D0ED"/>
<path d="M82.8027 47.4279C82.7263 48.1169 83.2214 48.7364 83.9113 48.8131C84.5958 48.8879 85.2152 48.3911 85.2917 47.7045C85.3657 47.0155 84.8706 46.3959 84.1843 46.3193C83.4962 46.2439 82.878 46.7389 82.8027 47.4279Z" fill="#2D69A0"/>
<path d="M53.9883 152.055C53.9883 157.436 58.3426 161.796 63.7099 161.796C69.0784 161.796 73.4303 157.436 73.4303 152.055C73.4303 146.673 69.0784 142.312 63.7099 142.312C58.3426 142.312 53.9883 146.673 53.9883 152.055Z" fill="#1D1D1D"/>
<path d="M57.7554 152.053C57.7554 155.345 60.4175 158.012 63.7027 158.012C66.9872 158.012 69.6512 155.345 69.6512 152.053C69.6512 148.761 66.9872 146.093 63.7027 146.093C60.4175 146.093 57.7554 148.761 57.7554 152.053Z" fill="#B9B7B8"/>
<path d="M59.4215 150.114C57.5185 156.022 65.6388 158.861 68.0459 152.862C69.4752 149.296 74.5003 135.443 74.5003 135.443H55.6274C55.6274 135.443 61.9056 142.4 59.4215 150.114Z" fill="#D3D2D2"/>
<path d="M61.1445 151.321C61.1445 152.565 62.1516 153.576 63.3957 153.576C64.6387 153.576 65.6458 152.565 65.6458 151.321C65.6458 150.076 64.6387 149.065 63.3957 149.065C62.1516 149.065 61.1445 150.076 61.1445 151.321Z" fill="#9C9A9B"/>
<path d="M113.831 152.055C113.831 157.436 118.184 161.796 123.553 161.796C128.921 161.796 133.273 157.436 133.273 152.055C133.273 146.673 128.921 142.312 123.553 142.312C118.184 142.312 113.831 146.673 113.831 152.055Z" fill="#282828"/>
<path d="M117.604 152.053C117.604 155.345 120.269 158.012 123.553 158.012C126.838 158.012 129.501 155.345 129.501 152.053C129.501 148.761 126.838 146.093 123.553 146.093C120.269 146.093 117.604 148.761 117.604 152.053Z" fill="#B9B7B8"/>
<path d="M36.3997 49.0571H157.163C153.391 63.8179 146.014 92.6876 145.175 95.9697C144.041 100.405 141.629 103.63 137.256 103.63H54.7517C50.3777 103.63 48.4078 101.041 46.8316 95.9697C45.0098 90.1124 39.3259 63.1403 36.3997 49.0571ZM33.605 46.8262C36.6602 62.0706 42.5997 91.2689 44.5021 97.6104C46.1494 103.098 48.2071 105.902 52.7759 105.902H138.957C143.526 105.902 146.048 102.411 147.232 97.6104C148.109 94.056 155.814 62.8057 159.754 46.8262H33.605Z" fill="#A7A5A6"/>
<path d="M31.9307 47.4999C31.9307 48.3601 33.3206 49.0568 35.0384 49.0568H156.648C158.364 49.0568 159.756 48.3601 159.756 47.4999C159.756 46.6391 158.364 45.9423 156.648 45.9423H35.0384C33.3206 45.9423 31.9307 46.6391 31.9307 47.4999Z" fill="#A7A5A6"/>
<path d="M119.261 150.114C117.36 156.022 125.478 158.861 127.885 152.862C129.315 149.296 134.34 135.443 134.34 135.443H115.464C115.464 135.443 121.745 142.4 119.261 150.114Z" fill="#D3D2D2"/>
<path d="M168.372 35.3172L183.164 33.8154C185.213 33.6119 187.046 35.1041 187.252 37.1579C187.46 39.2117 185.968 39.0154 183.919 39.2225L168.621 40.4035C167.815 39.2225 167.815 36.4037 168.372 35.3172Z" fill="#186749"/>
<path d="M120.976 151.321C120.976 152.565 121.984 153.576 123.229 153.576C124.472 153.576 125.479 152.565 125.479 151.321C125.479 150.076 124.472 149.065 123.229 149.065C121.984 149.065 120.976 150.076 120.976 151.321Z" fill="#9C9A9B"/>
<defs>
<linearGradient id="paint0_linear_2274_6738" x1="118.742" y1="179" x2="112.591" y2="-18.7996" gradientUnits="userSpaceOnUse">
<stop stop-color="white"/>
<stop offset="1" stop-color="#EBEBEB"/>
</linearGradient>
</defs>
</svg>
