<svg width="414" height="103" viewBox="0 0 414 103" fill="none" xmlns="http://www.w3.org/2000/svg">
<path d="M154.712 43.0036C154.712 50.5798 148.652 54.9527 138.918 54.9527C133.834 54.9527 125.203 54.7087 120 54.4619V12.5701C125.084 12.3886 132.735 12.2015 138.12 12.2015C147.55 12.2015 153.059 16.331 153.059 23.3514C153.059 28.0947 150.305 31.9772 145.837 33.2701C151.285 34.5032 154.712 38.382 154.712 43.0036ZM130.285 20.7038V29.9433H137.572C141.06 29.9433 143.386 28.0329 143.386 25.0784C143.386 22.0585 141.244 20.7038 136.834 20.7038H130.285ZM144.61 41.5236C144.61 38.816 142.224 37.2725 138.611 37.2725H130.285V46.2669C133.102 46.3286 135.854 46.4521 137.631 46.4521C142.1 46.4521 144.61 44.7905 144.61 41.5236Z" fill="#0D0D0D"/>
<path d="M189.06 37.0891C189.06 39.4916 188.939 40.4777 188.509 42.7585H168.613C169.653 45.5314 172.226 47.2548 176.021 47.2548C178.775 47.2548 181.715 46.8244 186.674 45.7748L187.959 53.044C183.857 54.4002 179.759 55.3848 175.839 55.3848C164.757 55.3848 158.634 48.6077 158.634 39.4916C158.634 29.8834 165.248 23.662 174.245 23.662C182.877 23.662 189 29.019 189.06 37.0891ZM168.247 36.6587H180.491C180.307 33.3319 177.981 31.2363 174.552 31.2363C171.187 31.2363 168.92 33.2702 168.247 36.6587Z" fill="#0D0D0D"/>
<path d="M204.798 54.4619H194.818V10.7233H204.798V54.4619Z" fill="#0D0D0D"/>
<path d="M222.491 54.4619H212.513V10.7233H222.491V54.4619Z" fill="#0D0D0D"/>
<path d="M228.736 15.0362C228.736 11.5242 231.429 9 234.8 9C238.041 9 240.798 11.5242 240.798 15.0362C240.798 18.423 238.041 20.9489 234.8 20.9489C231.429 20.9489 228.736 18.423 228.736 15.0362ZM239.755 54.4619H229.841V24.5845H239.755V54.4619Z" fill="#0D0D0D"/>
<path d="M246.981 45.1592C252.063 47.006 256.286 47.8086 258.794 47.8086C261.245 47.8086 262.958 47.2548 262.958 45.96C262.958 44.0496 259.592 43.8662 256.226 43.1271C249.37 41.7089 245.88 39.4317 245.88 33.9475C245.88 27.4192 250.899 23.7219 259.101 23.7219C263.387 23.7219 268.59 24.7062 271.896 25.8774L269.999 33.2702C265.531 31.9155 261.611 31.1764 259.162 31.1764C256.899 31.1764 255.613 31.9155 255.613 33.2702C255.613 35.1805 258.246 35.2405 262.225 36.103C268.53 37.396 272.509 39.4317 272.509 45.2808C272.509 52.0598 267.184 55.3848 259.041 55.3848C255.185 55.3848 250.163 54.5854 245.084 52.7368L246.981 45.1592Z" fill="#0D0D0D"/>
<path d="M277.472 45.1592C282.55 47.006 286.777 47.8086 289.287 47.8086C291.732 47.8086 293.45 47.2548 293.45 45.96C293.45 44.0496 290.083 43.8662 286.714 43.1271C279.858 41.7089 276.37 39.4317 276.37 33.9475C276.37 27.4192 281.388 23.7219 289.594 23.7219C293.88 23.7219 299.083 24.7062 302.389 25.8774L300.488 33.2702C296.018 31.9155 292.102 31.1764 289.653 31.1764C287.387 31.1764 286.104 31.9155 286.104 33.2702C286.104 35.1805 288.737 35.2405 292.712 36.103C299.018 37.396 302.999 39.4317 302.999 45.2808C302.999 52.0598 297.671 55.3848 289.531 55.3848C285.674 55.3848 280.656 54.5854 275.572 52.7368L277.472 45.1592Z" fill="#0D0D0D"/>
<path d="M306.92 15.0362C306.92 11.5242 309.618 9 312.984 9C316.227 9 318.982 11.5242 318.982 15.0362C318.982 18.423 316.227 20.9489 312.984 20.9489C309.618 20.9489 306.92 18.423 306.92 15.0362ZM317.939 54.4619H308.025V24.5845H317.939V54.4619Z" fill="#0D0D0D"/>
<path d="M375.06 35.1805V54.4619H365.141V38.1369C365.141 34.071 363.181 32.7163 359.879 32.7163C358.41 32.7163 356.753 32.8398 354.92 33.2084C355.039 34.2544 355.104 35.1805 355.104 36.4753V54.4619H345.186V38.1369C345.186 34.071 343.226 32.7163 339.983 32.7163C338.572 32.7163 337.043 32.778 335.143 32.9632V54.4619H325.228V25.2618C330.92 24.3974 337.35 23.662 342.735 23.662C345.431 23.662 347.878 24.1523 349.777 25.2019C354.184 24.2757 358.717 23.662 362.631 23.662C369.918 23.662 375.06 27.1086 375.06 35.1805Z" fill="#0D0D0D"/>
<path d="M414 39.3681C414 49.0417 407.146 55.5083 397.163 55.5083C387.248 55.5083 380.329 49.0417 380.329 39.3681C380.329 29.7599 387.248 23.4132 397.163 23.4132C407.146 23.4132 414 29.7599 414 39.3681ZM404.513 39.3681C404.513 34.9336 401.452 31.9772 397.163 31.9772C392.88 31.9772 389.818 34.9336 389.818 39.3681C389.818 43.928 392.88 46.9461 397.163 46.9461C401.452 46.9461 404.513 43.928 404.513 39.3681Z" fill="#0D0D0D"/>
<path d="M126.215 70.3642C124.075 70.3642 122.229 70.4537 120 70.5423V85.7821H124.497V82.1517H126.215C130.469 82.1517 133.028 79.9782 133.028 76.3023C133.028 72.4711 130.469 70.3642 126.215 70.3642ZM124.497 78.3416V74.1962C125.08 74.1742 125.679 74.1742 126.302 74.1742C127.639 74.1742 128.509 74.8679 128.509 76.3023C128.509 77.5791 127.639 78.3416 126.302 78.3416H124.497ZM152.96 70.5423H148.482V85.7821H152.96V70.5423ZM182.244 73.4351V70.5423H169.413V74.465H175.895L168.994 82.8908V85.7821H182.419V81.8615H175.539L182.244 73.4351ZM211.278 73.4351V70.5423H198.453V74.465H204.931L198.031 82.8908V85.7821H211.455V81.8615H204.576L211.278 73.4351ZM232.098 83.6952H238.314L239.113 85.7821H243.857L237.287 70.4537H233.125L226.555 85.7821H231.299L232.098 83.6952ZM235.215 75.4964L236.91 80.0002H233.481L235.215 75.4964Z" fill="#0D0D0D"/>
<path d="M40.9412 7.85648C22.7708 7.85648 8.04008 22.8264 8.04008 41.2887V103H68.7651C86.936 103 101.666 88.0299 101.666 69.5653C101.666 52.7332 89.4261 38.812 73.4983 36.4805C71.2027 20.296 57.5024 7.85648 40.9412 7.85648Z" fill="white"/>
<path d="M18.8485 92.3524H63.9546V46.5161H18.8485V92.3524ZM41.4012 87.5894C31.5353 87.5894 23.5384 79.4606 23.5384 69.4354C23.5384 59.4093 31.5353 51.2805 41.4012 51.2805C51.2676 51.2805 59.2655 59.4093 59.2655 69.4354C59.2655 79.4606 51.2676 87.5894 41.4012 87.5894Z" fill="#186749"/>
<path d="M41.2749 12.9489C48.0222 12.9489 54.5322 15.4304 59.6066 19.9351C64.634 24.3982 67.9232 30.5332 68.8716 37.2072L69.405 40.979L73.1162 41.5229C79.6845 42.485 85.7206 45.8287 90.1138 50.9368C94.5467 56.0937 96.9875 62.7083 96.9875 69.5653C96.9875 85.1909 84.4773 97.9049 69.0989 97.9049H13.3863V41.2887C13.3863 25.6628 25.896 12.9489 41.2749 12.9489ZM41.2749 7.85648C23.1045 7.85648 8.37383 22.8263 8.37383 41.2887V103H69.0989C87.2698 103 102 88.0299 102 69.5653C102 52.7332 89.7598 38.812 73.832 36.4805C71.5365 20.296 57.8361 7.85648 41.2749 7.85648Z" fill="#0D0D0D"/>
<path d="M53.7364 69.4343C53.7364 76.3584 48.2116 81.9703 41.3982 81.9703C34.5853 81.9703 29.061 76.3584 29.061 69.4343C29.061 62.5092 34.5853 56.8973 41.3982 56.8973C48.2116 56.8973 53.7364 62.5092 53.7364 69.4343Z" fill="#EE273F"/>
<path d="M69.3495 46.5161C81.807 46.5161 91.9051 56.7765 91.9051 69.4354C91.9051 82.0919 81.807 92.3524 69.3495 92.3524V46.5161Z" fill="#EE273F"/>
<path d="M18.8485 40.7994C18.8485 28.1404 28.9454 17.8775 41.4027 17.8775C53.8575 17.8775 63.9546 28.1404 63.9546 40.7994H18.8485Z" fill="#EE273F"/>
<ellipse cx="41.4015" cy="69.4343" rx="14.4738" ry="15.1171" fill="white"/>
<path fill-rule="evenodd" clip-rule="evenodd" d="M34.0262 57.9677L34.0262 57.9677L34.0262 57.9677C33.801 58.1063 33.5585 58.2556 33.2868 58.4196L35.3147 61.6832L30.8532 60.4594L28.4197 64.7428L31.6644 68.0064H27.8113V70.6581H31.6644L28.4197 73.9217L31.056 78.4092L35.3147 77.3893L33.2868 80.6529L35.7203 82.0808L37.5455 78.8172L38.7622 83.1006H43.8321L45.0489 78.6132L46.8741 82.0808L49.3076 80.6529L47.4825 77.3893L51.7412 78.6132L54.3775 73.9217L51.1328 70.6581H54.9859V68.0064H51.1328L54.3775 64.7428L51.7412 60.4594L47.2797 61.6832L49.3076 58.2156L47.0769 56.7878L45.0489 60.2554L43.8321 55.7679H38.7622L37.7483 60.2554C37.4585 59.8181 37.0134 59.088 36.6002 58.4103C36.2424 57.8234 35.9086 57.2758 35.7203 56.9918C35.1265 57.2904 34.6413 57.589 34.0262 57.9677ZM39.5735 63.723L41.3986 57.3998L43.021 63.723L41.1958 66.5787L39.5735 63.723ZM45.4545 65.1508L51.5384 63.519L47.2797 68.0065H43.8322L45.4545 65.1508ZM45.4545 73.9218L43.6294 70.8622H47.2797L51.944 75.5536L45.4545 73.9218ZM39.5735 75.3496L41.3986 72.29L43.021 75.3496L41.3986 81.6729L39.5735 75.3496ZM37.1399 65.1508L31.0561 63.519L35.3148 68.0065H38.9651L37.1399 65.1508ZM35.5176 70.8621H38.9651L37.14 73.9218L30.8533 75.5536L35.5176 70.8621Z" fill="#EE273F"/>
<path d="M8.28421 16.2675C2.30513 23.9753 0.403376 32.7264 3.39801 36.6146C5.98482 39.9733 6.55967 35.3478 7.70936 33.9023C8.85905 32.4568 6.52117 43.5529 12.0424 43.5529C14.8949 43.5529 14.3635 33.8341 17.5034 31.9891C20.6434 30.1441 22.7912 37.4257 23.2519 30.8327C23.8051 22.9167 26.6793 20.7379 32.4494 18.5356C38.7229 16.1411 48.5344 15.5998 53.7547 18.5356C61.5357 22.9113 67.6295 28.0594 65.509 18.5356C64.1846 12.5872 55.7307 9.28449 49.9822 5.68136C40.7348 -0.114934 29.5186 2.3535 24.9415 3.62034C20.3644 4.88718 14.8733 7.77323 8.28421 16.2675Z" fill="white" stroke="black" stroke-width="4"/>
</svg>
